<svg id="SvgjsSvg1000" xmlns="http://www.w3.org/2000/svg" version="1.1" xmlns:xlink="http://www.w3.org/1999/xlink" xmlns:svgjs="http://svgjs.com/svgjs" width="30" height="18"><defs id="SvgjsDefs1001"></defs><path id="SvgjsPath1007" d="M695.4 670.57C694.8 669.97 693.9 669.97 693.5 670.57L684.1 679.57C683.5 680.1700000000001 682.6 680.1700000000001 682 679.57L672.1 670.1700000000001C671.6 669.7700000000001 671 670.1700000000001 670.6 670.57L668.5 672.57C668.2 672.7700000000001 668 673.1700000000001 668 673.57C668 673.97 668.2 674.37 668.4 674.57L681.9 687.57C682.1 687.7700000000001 682.5 687.97 683 687.97C683.2 687.97 683.9 687.77 684.1 687.57L697.6 674.57C697.8000000000001 674.37 698 673.97 698 673.7700000000001C698 673.3700000000001 697.8 672.9700000000001 697.6 672.7700000000001Z " fill="#ffc22c" fill-opacity="1" transform="matrix(1,0,0,1,-668,-670)"></path></svg>