<svg id="SvgjsSvg1039" xmlns="http://www.w3.org/2000/svg" version="1.1" xmlns:xlink="http://www.w3.org/1999/xlink" xmlns:svgjs="http://svgjs.com/svgjs" width="67" height="93"><defs id="SvgjsDefs1040"></defs><path id="SvgjsPath1041" d="M510.25 1081.6L510.25 1075.12L513.26 1072.1299999999999C514 1071.3899999999999 514 1070.2399999999998 513.26 1069.55C512.52 1068.82 511.36 1068.82 510.67 1069.55L507.11 1073.09C506.79 1073.4199999999998 506.56 1073.9199999999998 506.56 1074.3799999999999L506.56 1081.6L504.85 1081.6C503.83000000000004 1081.6 503 1082.4299999999998 503 1083.4399999999998L503 1099.82C503 1100.83 503.83 1101.6599999999999 504.85 1101.6599999999999L512.66 1101.6599999999999C513.67 1101.6599999999999 514.51 1100.83 514.51 1099.82L514.51 1083.4399999999998C514.51 1082.4299999999998 513.67 1081.6 512.66 1081.6ZM506.7 1097.98L506.7 1085.28L510.81 1085.28L510.81 1097.98Z " fill="#ffc22c" fill-opacity="1" transform="matrix(1,0,0,1,-448,-1069)"></path><path id="SvgjsPath1042" d="M507.33 1115.15L507.33 1133.69C507.33 1139.71 502.43 1144.5900000000001 496.38 1144.5900000000001L493.88 1144.5900000000001L493.88 1109.95L496.93 1109.95C497.95 1109.95 498.78000000000003 1109.1200000000001 498.78000000000003 1108.1100000000001L498.78000000000003 1073.8400000000001C498.78000000000003 1072.8300000000002 497.95000000000005 1072.0000000000002 496.93 1072.0000000000002L449.85 1072.0000000000002C448.83000000000004 1072.0000000000002 448 1072.8300000000002 448 1073.8400000000001L448 1108.16C448 1109.17 448.83 1110 449.85 1110L452.90000000000003 1110L452.90000000000003 1159.49C452.90000000000003 1160.5 453.73 1161.33 454.75000000000006 1161.33L492.08000000000004 1161.33C493.1 1161.33 493.93000000000006 1160.5 493.93000000000006 1159.49L493.93000000000006 1148.27L496.4200000000001 1148.27C504.4600000000001 1148.27 511.0300000000001 1141.74 511.0300000000001 1133.69L511.0300000000001 1115.15C510.9800000000001 1114.14 510.1900000000001 1113.3100000000002 509.18000000000006 1113.3100000000002C508.1600000000001 1113.3100000000002 507.33000000000004 1114.14 507.33000000000004 1115.15ZM456.55 1157.65L456.55 1109.95L490.19 1109.95L490.19 1157.65ZM451.7 1075.63L495.13 1075.63L495.13 1106.2700000000002L451.7 1106.2700000000002Z " fill="#ffc22c" fill-opacity="1" transform="matrix(1,0,0,1,-448,-1069)"></path><path id="SvgjsPath1043" d="M508.85 1104C507.83000000000004 1104 507 1104.83 507 1105.84L507 1108.78C507 1109.8 507.83 1110.62 508.85 1110.62C509.86 1110.62 510.70000000000005 1109.8 510.70000000000005 1108.78L510.70000000000005 1105.84C510.65000000000003 1104.83 509.86000000000007 1104 508.85 1104Z " fill="#ffc22c" fill-opacity="1" transform="matrix(1,0,0,1,-448,-1069)"></path><path id="SvgjsPath1044" d="M456.85 1079C455.83000000000004 1079 455 1079.83 455 1080.84L455 1100.11C455 1101.1299999999999 455.83 1101.9499999999998 456.85 1101.9499999999998L489.15000000000003 1101.9499999999998C490.16 1101.9499999999998 491.00000000000006 1101.1299999999999 491.00000000000006 1100.11L491.00000000000006 1080.84C491.00000000000006 1079.83 490.1600000000001 1079 489.15000000000003 1079ZM458.7 1098.27L458.7 1082.68L487.3 1082.68L487.3 1098.27Z " fill="#ffc22c" fill-opacity="1" transform="matrix(1,0,0,1,-448,-1069)"></path><path id="SvgjsPath1045" d="M482.96 1137.85C482.96 1135.6399999999999 481.53 1132.1399999999999 478.62 1127.2199999999998C476.59000000000003 1123.7699999999998 474.55 1120.9199999999998 474.46 1120.7799999999997C474.14 1120.2799999999997 473.53999999999996 1119.9999999999998 472.97999999999996 1119.9999999999998C472.42999999999995 1119.9999999999998 471.83 1120.2799999999997 471.49999999999994 1120.7799999999997C471.40999999999997 1120.9199999999998 469.37999999999994 1123.7699999999998 467.3399999999999 1127.2199999999998C464.4299999999999 1132.1399999999999 462.99999999999994 1135.5899999999997 462.99999999999994 1137.85C462.94999999999993 1143.37 467.43999999999994 1147.83 472.92999999999995 1147.83C478.42999999999995 1147.83 482.9599999999999 1143.37 482.9599999999999 1137.85ZM479.31 1137.85C479.31 1141.34 476.49 1144.1499999999999 472.98 1144.1499999999999C469.47 1144.1499999999999 466.65000000000003 1141.34 466.65000000000003 1137.85C466.65000000000003 1135.4599999999998 470.07000000000005 1129.48 472.98 1125.11C475.89000000000004 1129.4799999999998 479.31 1135.4599999999998 479.31 1137.85Z " fill="#ffc22c" fill-opacity="1" transform="matrix(1,0,0,1,-448,-1069)"></path><path id="SvgjsPath1046" d="M465.85 1092.68L480.17 1092.68C481.19 1092.68 482.02000000000004 1091.8500000000001 482.02000000000004 1090.8400000000001C482.02000000000004 1089.8300000000002 481.19000000000005 1089.0000000000002 480.17 1089.0000000000002L465.85 1089.0000000000002C464.83000000000004 1089.0000000000002 464 1089.8300000000002 464 1090.8400000000001C464 1091.8500000000001 464.83 1092.68 465.85 1092.68Z " fill="#ffc22c" fill-opacity="1" transform="matrix(1,0,0,1,-448,-1069)"></path></svg>