<svg id="SvgjsSvg1033" xmlns="http://www.w3.org/2000/svg" version="1.1" xmlns:xlink="http://www.w3.org/1999/xlink" xmlns:svgjs="http://svgjs.com/svgjs" width="60" height="60"><defs id="SvgjsDefs1034"></defs><path id="SvgjsPath1035" d="M338.2 2043.6C337.4 2044.6999999999998 320 2070.5 320 2083.5C320 2094.2 328.7 2103 339.3 2103C349.90000000000003 2103 358.6 2094.3 358.6 2083.5C358.6 2070.5 341.1 2044.7 340.40000000000003 2043.6C340.20000000000005 2043.1999999999998 339.70000000000005 2043 339.3 2043C338.90000000000003 2043 338.40000000000003 2043.2 338.2 2043.6ZM322.7 2083.6C322.7 2073.1 335.4 2052.7999999999997 339.3 2046.8999999999999C343.2 2052.8999999999996 355.90000000000003 2073.2 355.90000000000003 2083.6C355.90000000000003 2092.7 348.50000000000006 2100.2999999999997 339.3 2100.2999999999997C330.1 2100.2999999999997 322.7 2092.7999999999997 322.7 2083.6Z " fill="#ffc20e" fill-opacity="1" transform="matrix(1,0,0,1,-307,-2043)"></path><path id="SvgjsPath1036" d="M338 2095.1C338 2095.9 338.6 2096.5 339.4 2096.5C346.59999999999997 2096.5 352.4 2090.6 352.4 2083.4C352.4 2082.6 351.79999999999995 2082 351 2082C350.2 2082 349.6 2082.6 349.6 2083.4C349.6 2089.1 345 2093.7000000000003 339.40000000000003 2093.7000000000003C338.6 2093.7000000000003 338.00000000000006 2094.4 338.00000000000006 2095.1000000000004Z " fill="#ffc20e" fill-opacity="1" transform="matrix(1,0,0,1,-307,-2043)"></path><path id="SvgjsPath1037" d="M365.5 2049.1L362.9 2049.1L362.9 2046.3999999999999C362.9 2045.6 362.29999999999995 2044.9999999999998 361.5 2044.9999999999998C360.7 2044.9999999999998 360.1 2045.5999999999997 360.1 2046.3999999999999L360.1 2049.1L357.40000000000003 2049.1C356.6 2049.1 356.00000000000006 2049.7 356.00000000000006 2050.5C356.00000000000006 2051.3 356.6000000000001 2051.9 357.40000000000003 2051.9L360.1 2051.9L360.1 2054.5C360.1 2055.3 360.70000000000005 2055.9 361.5 2055.9C362.3 2055.9 362.9 2055.2000000000003 362.9 2054.5L362.9 2051.8L365.5 2051.8C366.3 2051.8 366.9 2051.2000000000003 366.9 2050.4C366.9 2049.6 366.29999999999995 2049.1 365.5 2049.1Z " fill="#ffc20e" fill-opacity="1" transform="matrix(1,0,0,1,-307,-2043)"></path><path id="SvgjsPath1038" d="M316.4 2090.1L313.7 2090.1L313.7 2087.4C313.7 2086.6 313.09999999999997 2086 312.3 2086C311.5 2086 311 2086.6 311 2087.4L311 2090.1L308.4 2090.1C307.59999999999997 2090.1 307 2090.7 307 2091.4C307 2092.2000000000003 307.6 2092.8 308.4 2092.8L311 2092.8L311 2095.5C311 2096.3 311.6 2096.9 312.4 2096.9C313.2 2096.9 313.79999999999995 2096.3 313.79999999999995 2095.5L313.79999999999995 2092.8L316.49999999999994 2092.8C317.29999999999995 2092.8 317.8999999999999 2092.2000000000003 317.8999999999999 2091.4C317.7999999999999 2090.7000000000003 317.0999999999999 2090.1 316.3999999999999 2090.1Z " fill="#ffc20e" fill-opacity="1" transform="matrix(1,0,0,1,-307,-2043)"></path></svg>