<svg id="SvgjsSvg1018" xmlns="http://www.w3.org/2000/svg" version="1.1" xmlns:xlink="http://www.w3.org/1999/xlink" xmlns:svgjs="http://svgjs.com/svgjs" width="60" height="60"><defs id="SvgjsDefs1019"></defs><path id="SvgjsPath1020" d="M367 1830.4L367 1822.7L363.1 1822.7C362.6 1816.7 357.6 1812 351.5 1812C346.3 1812 343.4 1815.2 342.3 1816.9C342.2 1816.9 342 1816.9 341.90000000000003 1816.9C339.20000000000005 1816.9 336.8 1818.5 335.8 1820.8000000000002C334.40000000000003 1815.2000000000003 329.40000000000003 1811.0000000000002 323.5 1811.0000000000002C316.8 1811.0000000000002 311.4 1816.1000000000001 310.9 1822.6000000000001L307 1822.6000000000001L307 1830.3000000000002L309.9 1830.3000000000002C310.09999999999997 1835.0000000000002 312.09999999999997 1839.3000000000002 315.09999999999997 1842.6000000000001L317.59999999999997 1866.2C317.59999999999997 1868.9 320.7 1871 323.4 1871L350.5 1871C353.2 1871 356.3 1868.9 356.3 1866.2L358.8 1842.6000000000001C361.90000000000003 1839.4 363.8 1835.1000000000001 364 1830.4ZM354.4 1866.2C354.4 1867.7 352.2 1869.1000000000001 350.5 1869.1000000000001L323.5 1869.1000000000001C321.8 1869.1000000000001 319.6 1867.7 319.6 1866.2L317.3 1844.6000000000001C320.40000000000003 1847.0000000000002 324.1 1848.5000000000002 328.3 1848.7L328.3 1850.7L345.7 1850.7L345.7 1848.7C349.8 1848.5 353.59999999999997 1847 356.7 1844.6000000000001L354.4 1866.1000000000001ZM334.1 1822.6L333.20000000000005 1822.6C330.50000000000006 1822.6 328.40000000000003 1824.8 328.40000000000003 1827.3999999999999L328.40000000000003 1836.1C328.40000000000003 1837.6999999999998 327.1 1839 325.50000000000006 1839C323.90000000000003 1839 322.6000000000001 1837.7 322.6000000000001 1836.1L322.6000000000001 1822.6L312.9000000000001 1822.6C313.30000000000007 1817.1999999999998 317.9000000000001 1812.8999999999999 323.5000000000001 1812.8999999999999C329.0000000000001 1812.8999999999999 333.60000000000014 1817.1999999999998 334.10000000000014 1822.6ZM345.8 1821.1L347.5 1820.1C346.7 1818.8 345.6 1817.8 344.3 1817.1999999999998C345.5 1815.7999999999997 347.8 1813.7999999999997 351.5 1813.7999999999997C356.5 1813.7999999999997 360.6 1817.5999999999997 361.1 1822.4999999999998L337.1 1822.4999999999998C337.5 1820.3999999999999 339.5 1818.6999999999998 341.8 1818.6999999999998C343.5 1818.6999999999998 344.90000000000003 1819.6 345.8 1821.1ZM365.1 1828.4L330.20000000000005 1828.4L330.20000000000005 1827.4C330.20000000000005 1825.8000000000002 331.50000000000006 1824.5 333.1 1824.5L365.1 1824.5ZM308.9 1824.5L320.5 1824.5L320.5 1828.4L308.9 1828.4ZM330.2 1846.8L343.7 1846.8L343.7 1848.7L330.2 1848.7ZM360.1 1830.4L362.1 1830.4C361.90000000000003 1833.6000000000001 360.90000000000003 1836.6000000000001 359.20000000000005 1839.1000000000001ZM313.9 1830.4L314.79999999999995 1839C313.09999999999997 1836.5 311.99999999999994 1833.6 311.9 1830.4ZM345.7 1846.8L345.7 1844.8999999999999L328.3 1844.8999999999999L328.3 1846.8C323.90000000000003 1846.6 320 1844.7 317 1841.8L315.8 1830.3999999999999L320.5 1830.3999999999999L320.5 1836.1999999999998C320.5 1838.8999999999999 322.7 1840.9999999999998 325.3 1840.9999999999998C327.90000000000003 1840.9999999999998 330.1 1838.7999999999997 330.1 1836.1999999999998L330.1 1830.3999999999999L358.1 1830.3999999999999L357 1841.8C354.1 1844.7 350.1 1846.6 345.7 1846.8Z " fill="#ffc22c" fill-opacity="1" transform="matrix(1,0,0,1,-307,-1811)"></path><path id="SvgjsPath1021" d="M357 1861.8C357 1864.3999999999999 359.2 1866.6 361.8 1866.6C364.40000000000003 1866.6 366.6 1864.5 366.6 1861.8C366.6 1859.1 364.40000000000003 1857 361.8 1857C359.1 1857 357 1859.2 357 1861.8ZM358.9 1861.8C358.9 1860.2 360.2 1858.8999999999999 361.79999999999995 1858.8999999999999C363.4 1858.8999999999999 364.69999999999993 1860.1999999999998 364.69999999999993 1861.8C364.69999999999993 1863.3999999999999 363.3999999999999 1864.7 361.79999999999995 1864.7C360.19999999999993 1864.7 358.9 1863.4 358.9 1861.8Z " fill="#ffc22c" fill-opacity="1" transform="matrix(1,0,0,1,-307,-1811)"></path><path id="SvgjsPath1022" d="M323 1867L323 1865L325 1865L325 1867Z " fill="#ffc22c" fill-opacity="1" transform="matrix(1,0,0,1,-307,-1811)"></path><path id="SvgjsPath1023" d="M326 1867L326 1865L328 1865L328 1867Z " fill="#ffc22c" fill-opacity="1" transform="matrix(1,0,0,1,-307,-1811)"></path><path id="SvgjsPath1024" d="M350 1867L350 1865L352 1865L352 1867Z " fill="#ffc22c" fill-opacity="1" transform="matrix(1,0,0,1,-307,-1811)"></path><path id="SvgjsPath1025" d="M345.9 1859.8C347.5 1859.8 348.79999999999995 1858.5 348.79999999999995 1856.8999999999999C348.79999999999995 1855.3 347.49999999999994 1853.9999999999998 345.9 1853.9999999999998C344.29999999999995 1853.9999999999998 343 1855.2999999999997 343 1856.8999999999999C343 1858.4999999999998 344.3 1859.8 345.9 1859.8ZM345.9 1857.9C345.29999999999995 1857.9 344.9 1857.5 344.9 1856.9C344.9 1856.3000000000002 345.29999999999995 1855.9 345.9 1855.9C346.5 1855.9 346.9 1856.4 346.9 1856.9C346.9 1857.4 346.5 1857.9 345.9 1857.9Z " fill="#ffc22c" fill-opacity="1" transform="matrix(1,0,0,1,-307,-1811)"></path></svg>