<?xml version="1.0" encoding="utf-8"?>
<!-- Generator: Avocode 0.4.0 - http://avocode.com -->
<svg height="38" width="60" xmlns:xlink="http://www.w3.org/1999/xlink" xmlns="http://www.w3.org/2000/svg" viewBox="0 0 60 38">
    <path fill="#ffc22c" fill-rule="evenodd" d="M 41.84 12.76 L 17.82 12.76 C 17.74 12.76 17.65 12.8 17.59 12.86 C 16.79 13.68 17.36 14.67 18.15 14.67 L 42.17 14.67 C 42.26 14.67 42.34 14.64 42.4 14.57 C 43.21 13.75 42.64 12.76 41.84 12.76 L 41.84 12.76 Z M 41.84 12.76" />
    <path fill="#ffc22c" fill-rule="evenodd" d="M 8.26 17.1 L 4.42 17.1 C 4.33 17.1 4.25 17.13 4.19 17.19 C 3.39 18.02 3.95 19.01 4.75 19.01 L 8.26 19.01 C 9.83 19.01 11.18 19.99 11.73 21.38 C 11.81 21.59 11.66 21.82 11.44 21.82 L 4.66 21.82 C 4.58 21.82 4.49 21.86 4.43 21.92 C 3.63 22.74 4.2 23.73 4.99 23.73 L 13.54 23.73 C 13.7 23.73 13.84 23.6 13.86 23.45 C 14.25 20.02 11.59 17.1 8.26 17.1" />
    <path fill="#ffc22c" fill-rule="evenodd" d="M 51.74 19.01 L 55.58 19.01 C 55.67 19.01 55.75 18.97 55.81 18.91 C 56.61 18.08 56.05 17.1 55.25 17.1 L 51.74 17.1 C 48.41 17.1 45.75 20.02 46.14 23.45 C 46.16 23.6 46.3 23.73 46.46 23.73 L 55.34 23.73 C 55.42 23.73 55.51 23.69 55.57 23.63 C 56.37 22.81 55.8 21.82 55.01 21.82 L 48.56 21.82 C 48.34 21.82 48.18 21.59 48.27 21.38 C 48.82 19.99 50.17 19.01 51.74 19.01" />
    <path fill="none" fill-rule="evenodd" d="M 0 37.99 L 60 37.99 L 60 0.13 L 0 0.13 L 0 37.99 L 0 37.99 Z M 0 37.99" />
    <path fill="#ffc22c" fill-rule="evenodd" d="M 58.09 18.02 L 57.47 30.65 C 57.46 30.82 57.32 30.95 57.15 30.95 L 2.85 30.95 C 2.68 30.95 2.54 30.82 2.53 30.65 L 1.9 18.02 C 1.84 16.59 2.34 15.23 3.31 14.21 C 4.24 13.24 5.49 12.68 6.85 12.64 C 6.89 12.63 6.92 12.64 6.95 12.65 L 10.55 13.65 C 10.56 13.65 10.56 13.65 10.56 13.65 L 14.1 14.64 C 14.87 14.85 15.68 14.05 15.12 13.04 C 15.08 12.96 15.01 12.91 14.93 12.88 L 12.58 12.23 C 12.38 12.18 12.29 11.95 12.38 11.77 L 16.51 3.79 C 16.99 2.86 18.33 2.04 19.37 2.04 L 40.63 2.04 C 41.67 2.04 43.01 2.86 43.49 3.79 L 47.62 11.77 C 47.71 11.95 47.61 12.18 47.42 12.23 L 45.07 12.88 C 44.99 12.91 44.92 12.96 44.87 13.04 C 44.32 14.05 45.13 14.85 45.89 14.64 L 53.05 12.65 C 53.08 12.64 53.11 12.63 53.15 12.64 C 54.51 12.68 55.76 13.24 56.69 14.21 C 57.66 15.23 58.16 16.59 58.09 18.02 L 58.09 18.02 Z M 58.06 12.89 C 56.71 11.47 54.87 10.7 52.88 10.72 C 52.85 10.72 52.82 10.72 52.8 10.73 L 49.91 11.53 C 49.77 11.57 49.62 11.51 49.55 11.37 L 45.17 2.9 C 44.37 1.35 42.37 0.13 40.63 0.13 L 19.37 0.13 C 17.62 0.13 15.63 1.35 14.82 2.9 L 10.45 11.37 C 10.38 11.51 10.23 11.57 10.08 11.53 L 7.28 10.75 C 7.2 10.73 7.11 10.72 7.03 10.72 C 5.08 10.72 3.27 11.49 1.94 12.89 C 0.61 14.29 -0.08 16.15 0.01 18.11 L 0.7 31.95 C 0.72 32.46 1.14 32.86 1.64 32.86 L 1.64 32.86 C 1.82 32.86 1.96 33 1.96 33.18 L 1.96 37.68 C 1.96 37.85 2.1 37.99 2.28 37.99 L 13.53 37.99 C 13.71 37.99 13.85 37.85 13.85 37.68 L 13.85 35.4 C 13.85 35.31 13.81 35.23 13.75 35.17 C 12.93 34.36 11.95 34.93 11.95 35.73 L 11.95 35.76 C 11.95 35.94 11.81 36.08 11.63 36.08 L 4.18 36.08 C 4 36.08 3.86 35.94 3.86 35.76 L 3.86 33.18 C 3.86 33 4 32.86 4.18 32.86 L 55.82 32.86 C 56 32.86 56.14 33 56.14 33.18 L 56.14 35.76 C 56.14 35.94 56 36.08 55.82 36.08 L 48.36 36.08 C 48.19 36.08 48.05 35.94 48.05 35.76 L 48.05 35.4 C 48.05 35.31 48.01 35.23 47.95 35.17 C 47.13 34.36 46.15 34.93 46.15 35.73 L 46.15 37.68 C 46.15 37.85 46.29 37.99 46.47 37.99 L 57.72 37.99 C 57.9 37.99 58.04 37.85 58.04 37.68 L 58.04 33.18 C 58.04 33 58.18 32.86 58.35 32.86 C 58.86 32.86 59.28 32.46 59.3 31.95 L 59.99 18.11 C 60.08 16.15 59.39 14.29 58.06 12.89 L 58.06 12.89 Z M 58.06 12.89" />
    <path fill="#ffc22c" fill-rule="evenodd" d="M 52.97 8.81 L 56.61 8.81 C 56.7 8.81 56.78 8.77 56.84 8.71 C 57.64 7.88 57.08 6.89 56.28 6.89 L 52.64 6.89 C 52.55 6.89 52.47 6.93 52.41 6.99 C 51.61 7.82 52.18 8.81 52.97 8.81" />
    <path fill="#ffc22c" fill-rule="evenodd" d="M 3.72 8.81 L 7.36 8.81 C 7.44 8.81 7.53 8.77 7.59 8.71 C 8.39 7.88 7.82 6.89 7.03 6.89 L 3.39 6.89 C 3.3 6.89 3.22 6.93 3.16 6.99 C 2.35 7.82 2.92 8.81 3.72 8.81" />
    <path fill="#ffc22c" fill-rule="evenodd" d="M 41.16 24.57 L 18.84 24.57 C 18.66 24.57 18.52 24.71 18.52 24.89 L 18.52 28.41 C 18.52 28.5 18.56 28.58 18.62 28.64 C 19.44 29.45 20.42 28.88 20.42 28.08 L 20.42 26.8 C 20.42 26.62 20.56 26.48 20.73 26.48 L 39.26 26.48 C 39.44 26.48 39.58 26.62 39.58 26.8 L 39.58 28.41 C 39.58 28.5 39.62 28.58 39.68 28.64 C 40.5 29.45 41.48 28.88 41.48 28.08 L 41.48 24.89 C 41.48 24.71 41.34 24.57 41.16 24.57" />
    <path fill="#ffc22c" fill-rule="evenodd" d="M 35.26 19.77 C 36.06 19.77 36.63 18.79 35.82 17.96 C 35.76 17.9 35.68 17.86 35.59 17.86 L 24.4 17.86 C 24.32 17.86 24.23 17.9 24.17 17.96 C 23.37 18.79 23.94 19.77 24.73 19.77 L 35.26 19.77 Z M 35.26 19.77" />
</svg>