<svg id="SvgjsSvg1000" xmlns="http://www.w3.org/2000/svg" version="1.1" xmlns:xlink="http://www.w3.org/1999/xlink" xmlns:svgjs="http://svgjs.com/svgjs" width="49" height="65"><defs id="SvgjsDefs1001"></defs><path id="SvgjsPath1007" d="M749.78 2079.55L785.17 2079.55C785.5999999999999 2079.55 785.9499999999999 2079.2000000000003 785.9499999999999 2078.78C785.9499999999999 2078.3500000000004 785.5999999999999 2078 785.17 2078L749.78 2078C749.35 2078 749 2078.35 749 2078.78C749 2079.2000000000003 749.35 2079.55 749.78 2079.55 " fill="#ffc22c" fill-opacity="1" transform="matrix(1,0,0,1,-743,-2038)"></path><path id="SvgjsPath1008" d="M744.55 2083.77L744.55 2094.23L756.0999999999999 2094.23L757.9799999999999 2089.54C758.0899999999999 2089.25 758.3799999999999 2089.05 758.6999999999999 2089.05L775.9 2089.05C776.22 2089.05 776.5 2089.25 776.62 2089.54L778.49 2094.23L790.04 2094.23L790.04 2083.77C790.04 2083.35 789.8399999999999 2082.64 789.61 2082.28L787.54 2079.02C787.49 2078.95 787.4599999999999 2078.87 787.4399999999999 2078.79L784.2499999999999 2065.97C783.9199999999998 2064.66 782.4999999999999 2063.5499999999997 781.1499999999999 2063.5499999999997L753.4399999999998 2063.5499999999997C752.0899999999998 2063.5499999999997 750.6699999999998 2064.66 750.3399999999998 2065.97L747.1499999999997 2078.79C747.1299999999998 2078.87 747.0999999999998 2078.95 747.0599999999997 2079.02L744.9799999999997 2082.28C744.7599999999996 2082.6400000000003 744.5499999999997 2083.3500000000004 744.5499999999997 2083.77ZM776.82 2094.23L775.37 2090.6L759.22 2090.6L757.77 2094.23ZM790.92 2081.45C791.3 2082.0499999999997 791.5899999999999 2083.0499999999997 791.5899999999999 2083.77L791.5899999999999 2095C791.5899999999999 2095.43 791.2499999999999 2095.78 790.8199999999999 2095.78L790.56 2095.78L790.56 2101.44C790.56 2101.87 790.2099999999999 2102.21 789.79 2102.21L781.63 2102.21C781.2 2102.21 780.85 2101.87 780.85 2101.44L780.85 2098.1C780.85 2097.68 781.2 2097.33 781.63 2097.33C782.05 2097.33 782.4 2097.68 782.4 2098.1L782.4 2100.66L789.01 2100.66L789.01 2095.7799999999997L745.58 2095.7799999999997L745.58 2100.66L752.19 2100.66L752.19 2098.1C752.19 2097.68 752.5400000000001 2097.33 752.97 2097.33C753.4 2097.33 753.74 2097.68 753.74 2098.1L753.74 2101.44C753.74 2101.87 753.4 2102.21 752.97 2102.21L744.8100000000001 2102.21C744.3800000000001 2102.21 744.0300000000001 2101.87 744.0300000000001 2101.44L744.0300000000001 2095.78L743.7800000000001 2095.78C743.3500000000001 2095.78 743.0000000000001 2095.4300000000003 743.0000000000001 2095L743.0000000000001 2083.77C743.0000000000001 2083.05 743.2900000000001 2082.05 743.6800000000001 2081.45L745.6800000000001 2078.29L746.4300000000001 2075.2799999999997L744.8100000000001 2075.2799999999997C744.3800000000001 2075.2799999999997 744.0300000000001 2074.93 744.0300000000001 2074.4999999999995C744.0300000000001 2074.0699999999997 744.3800000000001 2073.7199999999993 744.8100000000001 2073.7199999999993L746.82 2073.7199999999993L748.84 2065.5999999999995C749.34 2063.5799999999995 751.36 2061.9999999999995 753.44 2061.9999999999995L781.1500000000001 2061.9999999999995C783.2300000000001 2061.9999999999995 785.2500000000001 2063.5799999999995 785.7500000000001 2065.5999999999995L787.7800000000001 2073.7199999999993L789.7900000000001 2073.7199999999993C790.21 2073.7199999999993 790.5600000000001 2074.0699999999993 790.5600000000001 2074.4999999999995C790.5600000000001 2074.9299999999994 790.21 2075.2799999999997 789.7900000000001 2075.2799999999997L788.1600000000001 2075.2799999999997L788.9100000000001 2078.29Z " fill="#ffc22c" fill-opacity="1" transform="matrix(1,0,0,1,-743,-2038)"></path><path id="SvgjsPath1009" d="M746.78 2090.38L749.6899999999999 2090.38C751.9999999999999 2090.38 753.89 2088.5 753.89 2086.19C753.89 2083.88 752 2082 749.6899999999999 2082L747.3499999999999 2082C746.92 2082 746.5699999999999 2082.35 746.5699999999999 2082.78C746.5699999999999 2083.2000000000003 746.92 2083.55 747.3499999999999 2083.55L749.6899999999999 2083.55C751.15 2083.55 752.3299999999999 2084.7400000000002 752.3299999999999 2086.19C752.3299999999999 2087.65 751.15 2088.83 749.6899999999999 2088.83L746.78 2088.83C746.35 2088.83 746 2089.18 746 2089.61C746 2090.04 746.35 2090.38 746.78 2090.38 " fill="#ffc22c" fill-opacity="1" transform="matrix(1,0,0,1,-743,-2038)"></path><path id="SvgjsPath1010" d="M781 2086.19C781 2088.5 782.88 2090.38 785.19 2090.38L788.11 2090.38C788.54 2090.38 788.89 2090.04 788.89 2089.61C788.89 2089.1800000000003 788.54 2088.83 788.11 2088.83L785.19 2088.83C783.74 2088.83 782.5500000000001 2087.65 782.5500000000001 2086.19C782.5500000000001 2084.7400000000002 783.7400000000001 2083.55 785.19 2083.55L787.5400000000001 2083.55C787.97 2083.55 788.3100000000001 2083.2000000000003 788.3100000000001 2082.78C788.3100000000001 2082.3500000000004 787.97 2082 787.5400000000001 2082L785.19 2082C782.8800000000001 2082 781 2083.88 781 2086.19 " fill="#ffc22c" fill-opacity="1" transform="matrix(1,0,0,1,-743,-2038)"></path><path id="SvgjsPath1011" d="M764.24 2048.11C764.24 2051.01 765.8 2053.3700000000003 767.73 2053.3700000000003C769.65 2053.3700000000003 771.21 2051.01 771.21 2048.11C771.21 2044.2 768.7900000000001 2041.0200000000002 767.76 2039.8300000000002C766.73 2041.13 764.24 2044.64 764.24 2048.11ZM764.31 2052.62C763.4699999999999 2051.41 763 2049.7999999999997 763 2048.1099999999997C763 2046.0699999999997 763.72 2043.8299999999997 765.14 2041.4399999999996C766.1899999999999 2039.6899999999996 767.22 2038.5299999999995 767.27 2038.4799999999996L767.6999999999999 2037.9999999999995L768.16 2038.4499999999996C768.3299999999999 2038.6199999999997 772.4599999999999 2042.6499999999996 772.4599999999999 2048.1099999999997C772.4599999999999 2049.7999999999997 771.9899999999999 2051.41 771.1399999999999 2052.62C770.2499999999999 2053.9 769.0299999999999 2054.6099999999997 767.7299999999999 2054.6099999999997C766.42 2054.6099999999997 765.2099999999999 2053.8999999999996 764.31 2052.62Z " fill="#ffc22c" fill-opacity="1" transform="matrix(1,0,0,1,-743,-2038)"></path><path id="SvgjsPath1012" d="M780.24 2053.11C780.24 2056.01 781.8 2058.3700000000003 783.73 2058.3700000000003C785.65 2058.3700000000003 787.21 2056.01 787.21 2053.11C787.21 2049.2200000000003 784.7900000000001 2046.0200000000002 783.75 2044.8300000000002C782.73 2046.13 780.24 2049.65 780.24 2053.11ZM780.31 2057.62C779.4699999999999 2056.41 779 2054.7999999999997 779 2053.1099999999997C779 2051.0699999999997 779.72 2048.8299999999995 781.14 2046.4399999999996C782.1899999999999 2044.6899999999996 783.22 2043.5299999999995 783.27 2043.4799999999996L783.6899999999999 2042.9999999999995L784.16 2043.4499999999996C784.3299999999999 2043.6199999999997 788.4599999999999 2047.6499999999996 788.4599999999999 2053.1099999999997C788.4599999999999 2054.7999999999997 787.9899999999999 2056.41 787.1399999999999 2057.62C786.2499999999999 2058.9 785.0299999999999 2059.6099999999997 783.7299999999999 2059.6099999999997C782.42 2059.6099999999997 781.2099999999999 2058.8999999999996 780.31 2057.62Z " fill="#ffc22c" fill-opacity="1" transform="matrix(1,0,0,1,-743,-2038)"></path><path id="SvgjsPath1013" d="M748.24 2053.11C748.24 2056.01 749.8 2058.3700000000003 751.73 2058.3700000000003C753.65 2058.3700000000003 755.21 2056.01 755.21 2053.11C755.21 2049.2000000000003 752.7900000000001 2046.0200000000002 751.76 2044.8300000000002C750.73 2046.13 748.24 2049.6400000000003 748.24 2053.11ZM748.31 2057.62C747.4699999999999 2056.41 747 2054.7999999999997 747 2053.1099999999997C747 2051.0699999999997 747.72 2048.8299999999995 749.14 2046.4399999999996C750.1899999999999 2044.6899999999996 751.22 2043.5299999999995 751.27 2043.4799999999996L751.6999999999999 2042.9999999999995L752.16 2043.4499999999996C752.3299999999999 2043.6199999999997 756.4599999999999 2047.6499999999996 756.4599999999999 2053.1099999999997C756.4599999999999 2054.7999999999997 755.9899999999999 2056.41 755.1399999999999 2057.62C754.2499999999999 2058.9 753.0299999999999 2059.6099999999997 751.7299999999999 2059.6099999999997C750.42 2059.6099999999997 749.2099999999999 2058.8999999999996 748.31 2057.62Z " fill="#ffc22c" fill-opacity="1" transform="matrix(1,0,0,1,-743,-2038)"></path></svg>