<svg id="SvgjsSvg1008" xmlns="http://www.w3.org/2000/svg" version="1.1" xmlns:xlink="http://www.w3.org/1999/xlink" xmlns:svgjs="http://svgjs.com/svgjs" width="192" height="52"><defs id="SvgjsDefs1009"></defs><path id="SvgjsPath1010" d="M119.3 833.04L113.6 833.04L113.6 824.7199999999999L109.14999999999999 824.7199999999999L103.63 833.04L97 833.04L103.3 823.75C99.6 822.35 97.78 819.66 97.78 815.61C97.78 812.92 98.64 810.84 100.38 809.3000000000001C102.13 807.7900000000001 104.47999999999999 807.0000000000001 107.50999999999999 807.0000000000001L119.29999999999998 807.0400000000001ZM113.63 819.66L113.63 812.1999999999999L108.00999999999999 812.1999999999999C106.61999999999999 812.1999999999999 105.50999999999999 812.52 104.72999999999999 813.17C103.94999999999999 813.81 103.54999999999998 814.75 103.54999999999998 816C103.54999999999998 817.11 103.94999999999999 818.01 104.72999999999999 818.69C105.47999999999999 819.34 106.50999999999999 819.6600000000001 107.85999999999999 819.6600000000001Z " fill="#ffffff" fill-opacity="1" transform="matrix(1,0,0,1,-53,-791)"></path><path id="SvgjsPath1011" d="M125 833L125 807L130.7 807L130.7 817.29L141.17 817.29L141.17 807L146.86999999999998 807L146.86999999999998 833L141.17 833L141.17 822.56L130.7 822.56L130.7 833L124.99999999999999 833Z " fill="#ffffff" fill-opacity="1" transform="matrix(1,0,0,1,-53,-791)"></path><path id="SvgjsPath1012" d="M157.87 833L157.87 812.27L150 812.27L150 807L171.41 807L171.41 812.27L163.54 812.27L163.54 833Z " fill="#ffffff" fill-opacity="1" transform="matrix(1,0,0,1,-53,-791)"></path><path id="SvgjsPath1013" d="M181.08 806L186.31 806L197.39000000000001 832.22L191.44000000000003 832.22L189.09000000000003 826.37L178.16000000000003 826.37L175.81000000000003 832.22L170.00000000000003 832.22ZM187.06 821.31L183.64000000000001 812.89L180.19000000000003 821.31Z " fill="#ffffff" fill-opacity="1" transform="matrix(1,0,0,1,-53,-791)"></path><path id="SvgjsPath1014" d="M200 807L210.54 807C213.60999999999999 807 215.98999999999998 807.82 217.76999999999998 809.47C219.55999999999997 811.12 220.45 813.3100000000001 220.45 816.0400000000001C220.45 818.94 219.45 821.2 217.48999999999998 822.7800000000001C215.52999999999997 824.3900000000001 213.04 825.1800000000001 210.01 825.1800000000001L205.7 825.1800000000001L205.7 833.0000000000001L200 833.0000000000001ZM210.15 820.09C211.54 820.09 212.64000000000001 819.73 213.46 818.98C214.28 818.22 214.68 817.26 214.68 816.07C214.68 814.82 214.28 813.85 213.46 813.1700000000001C212.64000000000001 812.4900000000001 211.51000000000002 812.1600000000001 210.08 812.1600000000001L205.70000000000002 812.1600000000001L205.70000000000002 820.09Z " fill="#ffffff" fill-opacity="1" transform="matrix(1,0,0,1,-53,-791)"></path><path id="SvgjsPath1015" d="M224 807L229.7 807L229.7 815.82L235.17999999999998 815.82C238.14 815.82 240.45999999999998 816.58 242.12999999999997 818.12C243.79999999999995 819.62 244.61999999999998 821.7 244.61999999999998 824.25C244.61999999999998 826.94 243.73 829.06 241.98999999999998 830.63C240.23999999999998 832.21 237.82 833 234.82999999999998 833L223.99999999999997 833ZM229.66 820.74L229.66 827.84L234.72 827.84C237.54 827.84 238.96 826.62 238.96 824.1800000000001C238.96 821.8800000000001 237.54000000000002 820.74 234.69 820.74Z " fill="#ffffff" fill-opacity="1" transform="matrix(1,0,0,1,-53,-791)"></path><path id="SvgjsPath1016" d="M87.76 825.32C87.76 815.6700000000001 70.38000000000001 791 70.38000000000001 791C70.38000000000001 791 53.000000000000014 815.67 53.000000000000014 825.32C53.000000000000014 834.97 60.80000000000001 842.82 70.38000000000001 842.82C79.96000000000001 842.82 87.76 835 87.76 825.32Z " fill="#f6c349" fill-opacity="1" transform="matrix(1,0,0,1,-53,-791)"></path><path id="SvgjsPath1017" d="M78.17 825.39C78.17 821.16 70.59 809 70.59 809C70.59 809 63 821.19 63 825.39C63 829.58 66.42 833.06 70.59 833.06C74.75 833.06 78.17 829.6199999999999 78.17 825.39Z " fill="#000000" fill-opacity="1" transform="matrix(1,0,0,1,-53,-791)"></path></svg>