<svg id="SvgjsSvg1000" xmlns="http://www.w3.org/2000/svg" version="1.1" xmlns:xlink="http://www.w3.org/1999/xlink" xmlns:svgjs="http://svgjs.com/svgjs" width="192" height="52"><defs id="SvgjsDefs1001"></defs><path id="SvgjsPath1007" d="M119.3 1613.04L113.6 1613.04L113.6 1604.72L109.14999999999999 1604.72L103.63 1613.04L97 1613.04L103.31 1603.75C99.60000000000001 1602.35 97.78 1599.66 97.78 1595.61C97.78 1592.9199999999998 98.64 1590.84 100.38 1589.3C102.13 1587.79 104.47999999999999 1587 107.50999999999999 1587L119.29999999999998 1587ZM113.64 1599.66L113.64 1592.2L108.01 1592.2C106.62 1592.2 105.51 1592.52 104.73 1593.17C103.95 1593.8100000000002 103.55 1594.75 103.55 1596C103.55 1597.11 103.95 1598.01 104.73 1598.69C105.48 1599.3400000000001 106.51 1599.66 107.86 1599.66Z " fill="#ffffff" fill-opacity="1" transform="matrix(1,0,0,1,-53,-1571)"></path><path id="SvgjsPath1008" d="M125 1613L125 1587L130.7 1587L130.7 1597.29L141.17 1597.29L141.17 1587L146.86999999999998 1587L146.86999999999998 1613L141.17 1613L141.17 1602.56L130.7 1602.56L130.7 1613L124.99999999999999 1613Z " fill="#ffffff" fill-opacity="1" transform="matrix(1,0,0,1,-53,-1571)"></path><path id="SvgjsPath1009" d="M157.87 1613L157.87 1592.27L150 1592.27L150 1587L171.41 1587L171.41 1592.27L163.54 1592.27L163.54 1613Z " fill="#ffffff" fill-opacity="1" transform="matrix(1,0,0,1,-53,-1571)"></path><path id="SvgjsPath1010" d="M181.08 1586L186.32000000000002 1586L197.39000000000001 1612.22L191.44000000000003 1612.22L189.09000000000003 1606.3700000000001L178.16000000000003 1606.3700000000001L175.81000000000003 1612.22L170.00000000000003 1612.22ZM187.06 1601.31L183.64000000000001 1592.8899999999999L180.19000000000003 1601.31Z " fill="#ffffff" fill-opacity="1" transform="matrix(1,0,0,1,-53,-1571)"></path><path id="SvgjsPath1011" d="M200 1587L210.54 1587C213.60999999999999 1587 215.98999999999998 1587.82 217.78 1589.47C219.56 1591.1200000000001 220.45 1593.31 220.45 1596.04C220.45 1598.94 219.45 1601.2 217.48999999999998 1602.78C215.52999999999997 1604.3899999999999 213.04 1605.18 210.01 1605.18L205.7 1605.18L205.7 1613L200 1613ZM210.15 1600.09C211.54 1600.09 212.65 1599.73 213.47 1598.98C214.28 1598.22 214.68 1597.26 214.68 1596.07C214.68 1594.82 214.28 1593.85 213.47 1593.1699999999998C212.65 1592.4899999999998 211.51 1592.1599999999999 210.08 1592.1599999999999L205.70000000000002 1592.1599999999999L205.70000000000002 1600.09Z " fill="#ffffff" fill-opacity="1" transform="matrix(1,0,0,1,-53,-1571)"></path><path id="SvgjsPath1012" d="M224 1587L229.7 1587L229.7 1595.82L235.19 1595.82C238.14 1595.82 240.46 1596.58 242.13 1598.12C243.81 1599.62 244.63 1601.6999999999998 244.63 1604.25C244.63 1606.94 243.73 1609.06 241.99 1610.63C240.24 1612.21 237.82000000000002 1613 234.83 1613L224 1613ZM229.66 1600.74L229.66 1607.84L234.72 1607.84C237.54 1607.84 238.96 1606.62 238.96 1604.1799999999998C238.96 1601.8799999999999 237.54000000000002 1600.7399999999998 234.69 1600.7399999999998Z " fill="#ffffff" fill-opacity="1" transform="matrix(1,0,0,1,-53,-1571)"></path><path id="SvgjsPath1013" d="M87.77 1605.32C87.77 1595.6699999999998 70.38 1571 70.38 1571C70.38 1571 53 1595.67 53 1605.32C53 1614.97 60.8 1622.82 70.38 1622.82C79.97 1622.82 87.77 1615 87.77 1605.32Z " fill="#f6c349" fill-opacity="1" transform="matrix(1,0,0,1,-53,-1571)"></path><path id="SvgjsPath1014" d="M78.18 1605.39C78.18 1601.16 70.59 1589 70.59 1589C70.59 1589 63 1601.19 63 1605.39C63 1609.5800000000002 66.42 1613.0600000000002 70.59 1613.0600000000002C74.76 1613.0600000000002 78.18 1609.6200000000001 78.18 1605.39Z " fill="#0084c1" fill-opacity="1" transform="matrix(1,0,0,1,-53,-1571)"></path></svg>