<svg id="SvgjsSvg1026" xmlns="http://www.w3.org/2000/svg" version="1.1" xmlns:xlink="http://www.w3.org/1999/xlink" xmlns:svgjs="http://svgjs.com/svgjs" width="60" height="60"><defs id="SvgjsDefs1027"></defs><path id="SvgjsPath1028" d="M334 1983L334 1981L336 1981L336 1983Z " fill="#ffc20e" fill-opacity="1" transform="matrix(1,0,0,1,-307,-1927)"></path><path id="SvgjsPath1029" d="M330 1983L330 1981L332 1981L332 1983Z " fill="#ffc20e" fill-opacity="1" transform="matrix(1,0,0,1,-307,-1927)"></path><path id="SvgjsPath1030" d="M360.9 1974.8C362.5 1974.8 363.79999999999995 1973.5 363.79999999999995 1971.8999999999999C363.79999999999995 1970.3 362.49999999999994 1968.9999999999998 360.9 1968.9999999999998C359.29999999999995 1968.9999999999998 358 1970.2999999999997 358 1971.8999999999999C358 1973.4999999999998 359.3 1974.8 360.9 1974.8ZM361.9 1971.9C361.9 1972.5 361.5 1972.9 360.9 1972.9C360.4 1972.9 359.9 1972.5 359.9 1971.9C359.9 1971.3000000000002 360.4 1970.9 360.9 1970.9C361.4 1970.9 361.9 1971.3000000000002 361.9 1971.9Z " fill="#ffc20e" fill-opacity="1" transform="matrix(1,0,0,1,-307,-1927)"></path><path id="SvgjsPath1031" d="M359.8 1961.9C359.8 1959.8000000000002 358.1 1958 355.90000000000003 1958C353.8 1958 352.00000000000006 1959.7 352.00000000000006 1961.9C352.00000000000006 1964.1000000000001 353.80000000000007 1965.8000000000002 355.90000000000003 1965.8000000000002C358.00000000000006 1965.8000000000002 359.8 1964.1000000000001 359.8 1961.9ZM357.8 1961.9C357.8 1963 356.90000000000003 1963.8000000000002 355.90000000000003 1963.8000000000002C354.8 1963.8000000000002 354.00000000000006 1962.9 354.00000000000006 1961.9C354.00000000000006 1960.9 354.80000000000007 1960 355.90000000000003 1960C357.00000000000006 1960 357.8 1960.9 357.8 1961.9Z " fill="#ffc20e" fill-opacity="1" transform="matrix(1,0,0,1,-307,-1927)"></path><path id="SvgjsPath1032" d="M358.3 1979.3C357.8 1979.3 357.3 1978.8999999999999 357.3 1978.3C357.3 1977.8 357.7 1977.3 358.3 1977.3L358.3 1975.3999999999999C356.7 1975.3999999999999 355.40000000000003 1976.6999999999998 355.40000000000003 1978.3C355.40000000000003 1979.8999999999999 356.70000000000005 1981.2 358.3 1981.2L363.1 1981.2C364.20000000000005 1981.2 365 1982.1000000000001 365 1983.1000000000001C365 1984.2 364.1 1985.0000000000002 363.1 1985.0000000000002L342.8 1985.0000000000002C343.2 1984.4000000000003 343.5 1983.8000000000002 343.7 1983.1000000000001L352.5 1983.1000000000001L352.5 1981.2L343.7 1981.2C343.2 1979 341.3 1977.3 339 1977.3L339 1969.6L340 1969.6L340 1968.6C340 1965.8999999999999 337.8 1963.8 335.2 1963.8L327.5 1963.8L327.5 1930.8999999999999C327.5 1928.8 325.8 1926.9999999999998 323.6 1926.9999999999998C321.40000000000003 1926.9999999999998 319.70000000000005 1928.6999999999998 319.70000000000005 1930.8999999999999L319.70000000000005 1963.8L311.80000000000007 1963.8C309.1000000000001 1963.8 307.00000000000006 1966 307.00000000000006 1968.6L307.00000000000006 1969.6L308.00000000000006 1969.6L308.00000000000006 1982.1999999999998C308.00000000000006 1984.7999999999997 310.1000000000001 1986.9999999999998 312.80000000000007 1986.9999999999998L363.1000000000001 1986.9999999999998C365.2000000000001 1986.9999999999998 367.00000000000006 1985.2999999999997 367.00000000000006 1983.0999999999997C367.00000000000006 1980.8999999999996 365.30000000000007 1979.2999999999997 363.1000000000001 1979.2999999999997ZM321.5 1930.9C321.5 1929.8000000000002 322.4 1929 323.4 1929C324.4 1929 325.29999999999995 1929.9 325.29999999999995 1930.9L325.29999999999995 1959L321.4 1959L321.4 1930.9ZM311.8 1965.7L335 1965.7C336.3 1965.7 337.3 1966.5 337.7 1967.6000000000001L309.09999999999997 1967.6000000000001C309.49999999999994 1966.5000000000002 310.59999999999997 1965.7 311.79999999999995 1965.7ZM325.4 1960.9L325.4 1963.8000000000002L321.5 1963.8000000000002L321.5 1960.9ZM312.8 1985.1C311.5 1985.1 310.5 1984.3 310.1 1983.1999999999998L328.3 1983.1999999999998L328.3 1981.2999999999997L309.90000000000003 1981.2999999999997L309.90000000000003 1969.5999999999997L313.8 1969.5999999999997L313.8 1975.3999999999996L315.7 1975.3999999999996L315.7 1969.5999999999997L337 1969.5999999999997L337 1980.1999999999996C337 1981.7999999999995 338.3 1983.0999999999997 339.9 1983.0999999999997L339.9 1981.1999999999996C339.4 1981.1999999999996 338.9 1980.7999999999995 338.9 1980.1999999999996L338.9 1979.1999999999996C340.5 1979.1999999999996 341.79999999999995 1980.4999999999995 341.79999999999995 1982.0999999999997C341.79999999999995 1983.6999999999996 340.49999999999994 1985.0999999999997 338.9 1985.0999999999997Z " fill="#ffc20e" fill-opacity="1" transform="matrix(1,0,0,1,-307,-1927)"></path></svg>