<svg id="SvgjsSvg1015" xmlns="http://www.w3.org/2000/svg" version="1.1" xmlns:xlink="http://www.w3.org/1999/xlink" xmlns:svgjs="http://svgjs.com/svgjs" width="16" height="21"><defs id="SvgjsDefs1016"></defs><path id="SvgjsPath1017" d="M504.4 1589C503.09999999999997 1589 502 1590.1 502 1591.4L502 1607.6000000000001C502 1608.9 503.1 1610.0000000000002 504.4 1610.0000000000002L515.6 1610.0000000000002C516.9 1610.0000000000002 518 1608.9000000000003 518 1607.6000000000001L518 1591.4C518 1590.1000000000001 516.9 1589 515.6 1589ZM514.4 1606.8L505.59999999999997 1606.8C505.29999999999995 1606.8 505.2 1606.7 505.2 1606.3999999999999L505.2 1592.6999999999998C505.2 1592.3999999999999 505.3 1592.2999999999997 505.59999999999997 1592.2999999999997L514.4 1592.2999999999997C514.6999999999999 1592.2999999999997 514.8 1592.3999999999996 514.8 1592.6999999999998L514.8 1606.3999999999999C514.8 1606.6999999999998 514.6999999999999 1606.8 514.4 1606.8Z " fill="#ffc22c" fill-opacity="1" transform="matrix(1,0,0,1,-502,-1589)"></path><path id="SvgjsPath1018" d="M508 1603.5C508 1602.67157 508.67157 1602 509.5 1602C510.32843 1602 511 1602.67157 511 1603.5C511 1604.32843 510.32843 1605 509.5 1605C508.67157 1605 508 1604.32843 508 1603.5Z " fill="#ffc22c" fill-opacity="1" transform="matrix(1,0,0,1,-502,-1589)"></path></svg>