<svg id="SvgjsSvg1047" xmlns="http://www.w3.org/2000/svg" version="1.1" xmlns:xlink="http://www.w3.org/1999/xlink" xmlns:svgjs="http://svgjs.com/svgjs" width="68" height="100"><defs id="SvgjsDefs1048"></defs><path id="SvgjsPath1049" d="M473 6316.8C473 6335.400000000001 507 6383 507 6383C507 6383 541 6335.4 541 6316.8C541 6298.2 525.7 6283 507 6283C488.3 6283 473 6298.1 473 6316.8Z " fill="#f6c349" fill-opacity="1" transform="matrix(1,0,0,1,-473,-6283)"></path><path id="SvgjsPath1050" d="M492 6317.8C492 6326 506.8 6349.400000000001 506.8 6349.400000000001C506.8 6349.400000000001 521.7 6325.900000000001 521.7 6317.8C521.7 6309.7 515 6303 506.90000000000003 6303C498.8 6303 492.00000000000006 6309.7 492.00000000000006 6317.8Z " fill="#000000" fill-opacity="1" transform="matrix(1,0,0,1,-473,-6283)"></path></svg>