<svg id="SvgjsSvg1014" xmlns="http://www.w3.org/2000/svg" version="1.1" xmlns:xlink="http://www.w3.org/1999/xlink" xmlns:svgjs="http://svgjs.com/svgjs" width="60" height="47"><defs id="SvgjsDefs1015"></defs><path id="SvgjsPath1016" d="M324.39 2058C323.62 2058 323 2058.62 323 2059.39C323 2060.15 323.62 2060.7799999999997 324.39 2060.7799999999997C325.15 2060.7799999999997 325.78 2060.1499999999996 325.78 2059.39C325.78 2058.62 325.15 2058 324.39 2058 " fill="#ffc22c" fill-opacity="1" transform="matrix(1,0,0,1,-307,-2053)"></path><path id="SvgjsPath1017" d="M319.39 2062C318.62 2062 318 2062.62 318 2063.39C318 2064.15 318.62 2064.7799999999997 319.39 2064.7799999999997C320.15 2064.7799999999997 320.78 2064.1499999999996 320.78 2063.39C320.78 2062.62 320.15 2062 319.39 2062 " fill="#ffc22c" fill-opacity="1" transform="matrix(1,0,0,1,-307,-2053)"></path><path id="SvgjsPath1018" d="M351.4 2096.45C348.69 2096.45 347.15 2095.66 345.38 2094.75C343.37 2093.73 341.09 2092.56 337 2092.56C332.91 2092.56 330.63 2093.73 328.62 2094.75C326.85 2095.66 325.31 2096.45 322.6 2096.45C316.48 2096.45 309.64000000000004 2090.1699999999996 309.64000000000004 2081.7799999999997L309.64000000000004 2079.6499999999996C310.26000000000005 2080.66 310.98 2081.6099999999997 311.80000000000007 2082.4999999999995C314.7900000000001 2085.7499999999995 318.7300000000001 2087.6099999999997 322.6000000000001 2087.6099999999997C325.18000000000006 2087.6099999999997 326.9100000000001 2086.99 328.13000000000005 2086.45C328.80000000000007 2086.16 329.1000000000001 2085.3799999999997 328.81000000000006 2084.71C328.51000000000005 2084.05 327.7300000000001 2083.75 327.07000000000005 2084.04C326.02000000000004 2084.5 324.6700000000001 2084.98 322.6 2084.98C316.48 2084.97 309.64000000000004 2078.7 309.64000000000004 2070.31C309.64000000000004 2061.91 316.48 2055.64 322.6 2055.64C325.31 2055.64 326.85 2056.42 328.62 2057.33C330.63 2058.36 332.91 2059.5299999999997 337 2059.5299999999997C341.09 2059.5299999999997 343.37 2058.3599999999997 345.38 2057.33C347.15 2056.42 348.69 2055.64 351.4 2055.64C357.52 2055.64 364.35999999999996 2061.91 364.35999999999996 2070.31C364.35999999999996 2078.7 357.52 2084.97 351.4 2084.97C348.69 2084.97 347.15 2084.1899999999996 345.38 2083.2799999999997C343.37 2082.2499999999995 341.09 2081.0899999999997 337 2081.0899999999997C333.83 2081.0899999999997 331.82 2081.7899999999995 330.42 2082.41C329.75 2082.7 329.45 2083.48 329.74 2084.1499999999996C330.03000000000003 2084.8099999999995 330.81 2085.1199999999994 331.48 2084.8199999999997C332.71000000000004 2084.2799999999997 334.34000000000003 2083.72 337 2083.72C340.45 2083.72 342.26 2084.6499999999996 344.18 2085.6299999999997C346.08 2086.5999999999995 348.05 2087.6099999999997 351.40000000000003 2087.6099999999997C355.27000000000004 2087.6099999999997 359.21000000000004 2085.7499999999995 362.20000000000005 2082.4999999999995C363.02000000000004 2081.6099999999997 363.74000000000007 2080.6599999999994 364.36000000000007 2079.6499999999996L364.36000000000007 2081.7799999999997C364.36000000000007 2090.1699999999996 357.5200000000001 2096.45 351.4000000000001 2096.45ZM351.4 2053C348.04999999999995 2053 346.08 2054.01 344.17999999999995 2054.98C342.25999999999993 2055.96 340.44999999999993 2056.89 336.99999999999994 2056.89C333.54999999999995 2056.89 331.73999999999995 2055.96 329.81999999999994 2054.98C327.91999999999996 2054.01 325.94999999999993 2053 322.5999999999999 2053C318.7299999999999 2053 314.7899999999999 2054.86 311.7999999999999 2058.11C308.6999999999999 2061.46 306.9999999999999 2065.79 306.9999999999999 2070.31L306.9999999999999 2081.7799999999997C306.9999999999999 2086.29 308.6999999999999 2090.62 311.7999999999999 2093.97C314.7899999999999 2097.22 318.7299999999999 2099.0899999999997 322.5999999999999 2099.0899999999997C325.94999999999993 2099.0899999999997 327.9199999999999 2098.0799999999995 329.81999999999994 2097.1C331.73999999999995 2096.12 333.54999999999995 2095.2 336.99999999999994 2095.2C340.44999999999993 2095.2 342.25999999999993 2096.12 344.17999999999995 2097.1C346.0799999999999 2098.08 348.04999999999995 2099.0899999999997 351.4 2099.0899999999997C355.27 2099.0899999999997 359.21 2097.22 362.2 2093.97C365.3 2090.62 367 2086.29 367 2081.7799999999997L367 2070.31C367 2065.79 365.3 2061.46 362.2 2058.11C359.21 2054.86 355.27 2053 351.4 2053Z " fill="#ffc22c" fill-opacity="1" transform="matrix(1,0,0,1,-307,-2053)"></path><path id="SvgjsPath1019" d="M355.39 2086C354.62 2086 354 2086.62 354 2087.39C354 2088.15 354.62 2088.7799999999997 355.39 2088.7799999999997C356.15 2088.7799999999997 356.78 2088.1499999999996 356.78 2087.39C356.78 2086.62 356.15 2086 355.39 2086 " fill="#ffc22c" fill-opacity="1" transform="matrix(1,0,0,1,-307,-2053)"></path></svg>