<?xml version="1.0" standalone="no"?>
<!DOCTYPE svg PUBLIC "-//W3C//DTD SVG 20010904//EN"
 "http://www.w3.org/TR/2001/REC-SVG-20010904/DTD/svg10.dtd">
<svg version="1.0" xmlns="http://www.w3.org/2000/svg"
 width="300.000000pt" height="300.000000pt" viewBox="0 0 300.000000 300.000000"
 preserveAspectRatio="xMidYMid meet">
<metadata>
Created by potrace 1.11, written by Peter Selinger 2001-2013
</metadata>
<g transform="translate(0.000000,300.000000) scale(0.100000,-0.100000)"
fill="#000000" stroke="none">
<path d="M0 1500 l0 -1500 1500 0 1500 0 0 1500 0 1500 -1500 0 -1500 0 0
-1500z m1705 1010 c318 -477 554 -908 645 -1176 41 -120 44 -138 48 -254 3
-91 -1 -144 -12 -194 -74 -315 -298 -557 -616 -662 -81 -27 -93 -29 -275 -29
l-190 0 -103 36 c-134 48 -247 117 -342 209 -220 214 -316 514 -250 787 73
304 371 847 818 1492 l66 94 23 -29 c13 -16 98 -139 188 -274z"/>
<path d="M1418 1793 c-215 -360 -318 -590 -318 -715 0 -102 63 -230 145 -292
19 -15 61 -39 93 -54 50 -24 69 -27 158 -27 96 0 103 2 176 38 132 65 207 174
216 314 6 100 -26 199 -136 416 -71 138 -247 447 -256 447 -1 0 -36 -57 -78
-127z"/>
</g>
</svg>
